<?xml version="1.0" encoding="UTF-8" standalone="no"?>
<svg
   width="1792"
   height="1024"
   version="1.1"
   id="svg1"
   sodipodi:docname="Logo.svg"
   inkscape:version="1.3 (0e150ed6c4, 2023-07-21)"
   xmlns:inkscape="http://www.inkscape.org/namespaces/inkscape"
   xmlns:sodipodi="http://sodipodi.sourceforge.net/DTD/sodipodi-0.dtd"
   xmlns="http://www.w3.org/2000/svg"
   xmlns:svg="http://www.w3.org/2000/svg">
  <defs
     id="defs1" />
  <sodipodi:namedview
     id="namedview1"
     pagecolor="#ffffff"
     bordercolor="#000000"
     borderopacity="0.25"
     inkscape:showpageshadow="2"
     inkscape:pageopacity="0.0"
     inkscape:pagecheckerboard="0"
     inkscape:deskcolor="#d1d1d1"
     inkscape:zoom="0.91162109"
     inkscape:cx="789.80182"
     inkscape:cy="470.04178"
     inkscape:window-width="3840"
     inkscape:window-height="2081"
     inkscape:window-x="3831"
     inkscape:window-y="-9"
     inkscape:window-maximized="1"
     inkscape:current-layer="svg1" />
  <path
     style="fill:#0f2530;stroke:none"
     d="m 1002,536 c 8.17,-19.661 15.02,-38.468 15.96,-60 0.77,-17.683 -0.99,-33.892 -5.33,-51 -3.03,-11.938 -8.66,-23.172 -14.41,-34 C 969.883,337.653 912.318,308.455 855,297.461 827.569,292.199 799.803,292 772,292 h -36 c -5.791,0 -12.277,0.811 -17.985,-0.228 -5,-0.909 -8.578,-5.671 -13.015,-7.951 -10.902,-5.601 -23.563,-4.367 -32.96,3.647 -18.343,15.643 -9.766,46.113 12.96,51.632 7.768,1.887 16.214,-0.235 23,-4.313 3.007,-1.807 10.02691,-7.35237 14.07338,-8.07525 29.66505,0.85284 28.95333,1.05418 29.84628,0.91707 C 740.93549,332.08938 724.064,342.916 712,351.439 c -19.165,13.54 -34.532,32.597 -46.55,52.561 -6.678,11.093 -11.36,22.925 -15.874,35 -37.596,100.547 20.476,214.283 112.424,261.742 31.675,16.348 65.551,25.715 101,29.088 24.223,2.305 53.77356,0.99271 78.11356,0.99271 39.627,0 75.27644,0.13329 114.88644,-0.83771 39.31,-0.963 75,-23.084 96.97,-54.985 8.47,-12.294 22.38,-34.164 6.57,-46.612 C 1149.32,620.347 1130.22,624 1118,624 h -106 c -22.367,0 -45.64333,-0.62945 -68,-0.17 -12.14951,0.24968 -30.50409,-0.0326 -40.94972,-2.9482 C 895.55964,618.79099 903.02358,620.8097 886,614 c 11.03473,-0.68117 11.289,-0.626 17,-1.17 11.745,-1.117 23.483,-2.919 35,-5.495 44.048,-9.851 84.44,-31.672 114.83,-65.335 12.53,-13.881 21.71,-29.727 28.62,-47 C 1123.06,390.974 1057.47,268.607 954,232.345 938.327,226.853 921.543,221.951 905,220.174 885.49,218.077 865.615,219 846,219 h -79 -68 c -13.905,0 -28.275,-1.112 -42,1.46 -29.794,5.582 -56.331,20.635 -74.254,45.54 -10.844,15.069 -19.181,33.453 -21.46,52 -2.311,18.807 -0.286,39.048 -0.286,58 v 176 49 c 0,15.811 -0.258,30.658 4.141,46 9.893,34.503 33.475,64.564 67.859,76.819 30.135,10.74 65.52,6.181 97,6.181 8.18,0 16.857,0.829 24.985,-0.109 3.522,-0.406 6.753,-2.849 4.792,-6.71 -1.652,-3.251 -5.765,-4.831 -8.777,-6.487 -5.865,-3.225 -11.333,-6.961 -17,-10.501 -6.308,-3.941 -12.787,-10.606 -20,-12.683 -4.887,-1.407 -10.954,-0.51 -16,-0.51 -10.962,0 -22.052,0.492 -33,-0.04 -22.904,-1.114 -43.169,-15.997 -54.934,-34.96 -4.364,-7.033 -7.713,-14.925 -9.566,-23 -2.88,-12.551 -2.5,-25.222 -2.5,-38 V 549 388 c 0,-33.256 -5.396,-70.191 14.771,-99 C 624.65,272.031 643.615,260.624 664,257.325 679.272,254.853 696.528,257 712,257 h 125 42 c 7.558,0 15.497,-0.686 23,0.289 24.291,3.157 48.46,13.094 69,26.147 56.42,35.851 96.59,103.296 82.49,171.564 -3.34,16.166 -10.2,32.034 -18.92,46 -8.64,13.857 -19.98,24.778 -32.57,35 M 990.059,219.742 c -6.755,2.849 -0.734,8.487 2.942,10.79 7.569,4.745 15.499,8.919 22.999,13.812 5.79,3.78 11.61,8.889 18,11.57 3.73,1.563 8.05,1.086 12,1.086 7.95,0 16.06,-0.457 24,0.089 22.25,1.533 42.55,16.177 53.79,34.911 13.21,22.021 11.21,46.377 11.21,71 v 114 26 c 0,4.895 -0.59,10.245 0.79,15 2.8,9.701 12.75,13.907 22.21,11.526 14.67,-3.691 14,-17.387 14,-29.526 v -88 -63 c 0,-12.887 1.05,-26.267 -1.31,-39.001 -5.25,-28.289 -23.06,-55.822 -46.69,-71.97 -8.83,-6.038 -18.72,-11.173 -29,-14.258 C 1077.67,218.57 1059.88,219 1042,219 h -36 c -4.8,0 -11.44,-1.155 -15.941,0.742 M 850,353.3 c 56.347,-8.033 110.361,27.5 126.431,81.7 5.729,19.323 4.592,40.538 0.359,60 -3.011,13.845 -9.84,27.674 -18.268,39 -8.54,11.476 -19.286,21.407 -31.522,28.796 -12.832,7.749 -27.133,12.913 -42,14.915 -25.955,3.497 -52.825,-0.37 -76,-13.023 C 796.212,557.705 785.517,547.768 777.012,536 768.518,524.248 761.31,511.155 757.745,497 744.677,445.113 767.466,388.671 816,364.248 c 10.575,-5.322 22.226,-9.269 34,-10.948 M 741,381 c -9.854,17.767 -17.98,34.821 -21.739,55 -2.583,13.866 -4.598,28.89 -3.087,43 6.266,58.525 43.8,108.899 92.826,139.947 23.277,14.741 49.707,24.681 76,32.484 34.694,10.295 70.206,9.569 106,9.569 h 124 c -44.3669,38.07351 -75.6331,32.60434 -117.69255,32.82271 l -26.41029,0.13712 C 956.73435,694.03336 878.098,694.173 864,692.83 818.632,688.51 772.654,670.206 739,638.911 726.984,627.737 715.825,615.647 706.671,602 670.854,548.611 664.584,477.042 700.142,422 710.312,406.258 723.651,389.207 741,381 m 261,155 -1,1 1,-1 m 65,15.529 c -3.23,0.747 -6.32,2.326 -9,4.26 -23.34,16.838 -5.87,54.837 22,48.531 3.89,-0.881 7.79,-2.467 11,-4.877 24.03,-18.089 3.86,-54.343 -24,-47.914 m 82,9.286 c -20.46,2.307 -16.1,36.198 4,33.677 23.21,-2.911 18.58,-36.224 -4,-33.677"
     id="path1"
     sodipodi:nodetypes="cccccssccccsccccccsscccsssscccccccscsccsscsscscccccsccsscsccscscccccccccsccscsccscscccssccsccscccscccscccscssccccccccccccccsc" />
</svg>
