<svg xmlns="http://www.w3.org/2000/svg" xmlns:xlink="http://www.w3.org/1999/xlink" version="1.1" x="0px" y="0px" viewBox="0 0 100 100" style="background-color: black;" xml:space="preserve"><g><path style="fill: white" d="M87.5,43.0146484h-5.7983398c-0.8198242-3.7470703-2.2783203-7.2705078-4.3432617-10.4946289l4.097168-4.097168   c0.390625-0.390625,0.390625-1.0234375,0-1.4140625l-8.4643555-8.4643555c-0.375-0.375-1.0390625-0.375-1.4140625,0   l-4.097168,4.0976563c-3.2241211-2.0654297-6.7475586-3.5239258-10.4946289-4.34375V12.5c0-0.5522461-0.4477539-1-1-1H44.0146484   c-0.5522461,0-1,0.4477539-1,1v5.7983398c-3.7470703,0.8198242-7.2705078,2.2783203-10.4946289,4.34375l-4.097168-4.0976563   c-0.1875-0.1875-0.4418945-0.2929688-0.7070313-0.2929688s-0.5195313,0.1054688-0.7070313,0.2929688l-8.4643555,8.4643555   c-0.390625,0.390625-0.390625,1.0234375,0,1.4140625l4.097168,4.097168   c-2.0649414,3.2241211-3.5234375,6.7475586-4.3432617,10.4946289H12.5c-0.5522461,0-1,0.4477539-1,1v11.9707031   c0,0.5522461,0.4477539,1,1,1h5.7983398c0.8198242,3.7470703,2.2783203,7.2705078,4.3432617,10.4946289l-4.097168,4.097168   c-0.390625,0.390625-0.390625,1.0234375,0,1.4140625l8.4643555,8.4643555c0.375,0.375,1.0390625,0.375,1.4140625,0   l4.097168-4.0976563c3.2241211,2.0654297,6.7475586,3.5239258,10.4946289,4.34375V87.5c0,0.5522461,0.4477539,1,1,1h11.9707031   c0.5522461,0,1-0.4477539,1-1v-5.7983398c3.7470703-0.8198242,7.2705078-2.2783203,10.4946289-4.34375l4.097168,4.0976563   c0.1875,0.1875,0.4418945,0.2929688,0.7070313,0.2929688s0.5195313-0.1054688,0.7070313-0.2929688l8.4643555-8.4643555   c0.390625-0.390625,0.390625-1.0234375,0-1.4140625l-4.097168-4.097168   c2.0649414-3.2241211,3.5234375-6.7475586,4.3432617-10.4946289H87.5c0.5522461,0,1-0.4477539,1-1V44.0146484   C88.5,43.4624023,88.0522461,43.0146484,87.5,43.0146484z M86.5,54.9853516h-5.6132813   c-0.4794922,0-0.8911133,0.340332-0.9819336,0.8105469c-0.78125,4.0551758-2.3486328,7.8417969-4.6577148,11.2543945   c-0.2685547,0.3969727-0.2177734,0.9287109,0.1210938,1.2675781l3.9663086,3.9663086l-7.050293,7.050293l-3.9663086-3.9667969   c-0.3388672-0.3383789-0.8710938-0.3896484-1.2675781-0.1210938c-3.4125977,2.3095703-7.1987305,3.8764648-11.2543945,4.6582031   c-0.4702148,0.0908203-0.8105469,0.5024414-0.8105469,0.9819336V86.5h-9.9707031v-5.6132813   c0-0.4794922-0.340332-0.8911133-0.8105469-0.9819336c-4.0556641-0.7817383-7.8417969-2.3486328-11.2543945-4.6582031   c-0.3964844-0.2675781-0.9282227-0.2172852-1.2675781,0.1210938l-3.9663086,3.9667969l-7.050293-7.050293l3.9663086-3.9663086   c0.3388672-0.3388672,0.3896484-0.8706055,0.1210938-1.2675781c-2.309082-3.4125977-3.8764648-7.1992188-4.6577148-11.2543945   c-0.0908203-0.4702148-0.5024414-0.8105469-0.9819336-0.8105469H13.5v-9.9707031h5.6132813   c0.4794922,0,0.8911133-0.340332,0.9819336-0.8105469c0.78125-4.0551758,2.3486328-7.8417969,4.6577148-11.2543945   c0.2685547-0.3969727,0.2177734-0.9287109-0.1210938-1.2675781l-3.9663086-3.9663086l7.050293-7.050293l3.9663086,3.9667969   c0.3393555,0.3388672,0.8706055,0.3896484,1.2675781,0.1210938c3.4125977-2.3095703,7.1987305-3.8764648,11.2543945-4.6582031   c0.4702148-0.0908203,0.8105469-0.5024414,0.8105469-0.9819336V13.5h9.9707031v5.6132813   c0,0.4794922,0.340332,0.8911133,0.8105469,0.9819336c4.0556641,0.7817383,7.8417969,2.3486328,11.2543945,4.6582031   c0.3969727,0.269043,0.9287109,0.2177734,1.2675781-0.1210938l3.9663086-3.9667969l7.050293,7.050293l-3.9663086,3.9663086   c-0.3388672,0.3388672-0.3896484,0.8706055-0.1210938,1.2675781c2.309082,3.4125977,3.8764648,7.1992188,4.6577148,11.2543945   c0.0908203,0.4702148,0.5024414,0.8105469,0.9819336,0.8105469H86.5V54.9853516z"/><path style="fill: white" d="M70.7539063,46.5649414c-1.5438843,0-2.8378906,1.0306396-3.269165,2.4350586H61.572876   C61.0914917,43.3884888,56.6115112,38.9085083,51,38.427124v-5.4515381h7.1707764   c0.4312744,1.4044189,1.7252808,2.4350586,3.269165,2.4350586c1.894043,0,3.4350586-1.5410156,3.4350586-3.4350586   s-1.5410156-3.4350586-3.4350586-3.4350586c-1.5438843,0-2.8378906,1.0306396-3.269165,2.4350586H50c-0.5522461,0-1,0.4477539-1,1   v6.4515381c-2.4805908,0.2128296-4.7382813,1.2058105-6.5302124,2.7349854h-3.4605103v-5.3476563c0-0.5522461-0.4477539-1-1-1   h-2.8856201c-0.4312744-1.4044189-1.7252808-2.4350586-3.269165-2.4350586c-1.894043,0-3.4350586,1.5410156-3.4350586,3.4350586   s1.5410156,3.4350586,3.4350586,3.4350586c1.5438843,0,2.8378906-1.0306396,3.269165-2.4350586h1.8856201v5.3476563   c0,0.5522461,0.4477539,1,1,1h2.6121216C39.4019165,44.8300171,38.6134644,46.8277588,38.427124,49h-5.9118652   c-0.4312744-1.4044189-1.7252808-2.4350586-3.269165-2.4350586c-1.894043,0-3.4350586,1.5410156-3.4350586,3.4350586   s1.5410156,3.4350586,3.4350586,3.4350586c1.5438843,0,2.8378906-1.0306396,3.269165-2.4350586h5.9118652   C38.9085083,56.6115112,43.3884888,61.0914917,49,61.572876v5.4515381h-7.1707764   c-0.4312744-1.4044189-1.7252808-2.4350586-3.269165-2.4350586c-1.894043,0-3.4350586,1.5410156-3.4350586,3.4350586   s1.5410156,3.4350586,3.4350586,3.4350586c1.5438843,0,2.8378906-1.0306396,3.269165-2.4350586H50c0.5522461,0,1-0.4477539,1-1   V61.572876c2.0618896-0.1768799,3.9708252-0.8903809,5.5859375-2.0057373v3.5627441c0,0.5522461,0.4477539,1,1,1h7.7073975   c0.4312744,1.4044189,1.7252808,2.4350586,3.269165,2.4350586c1.894043,0,3.4350586-1.5410156,3.4350586-3.4350586   S70.456543,59.6948242,68.5625,59.6948242c-1.5438843,0-2.8378906,1.0306396-3.269165,2.4350586h-6.7073975V57.807373   C60.2550659,55.9735107,61.3488159,53.6121826,61.572876,51h5.9118652c0.4312744,1.4044189,1.7252808,2.4350586,3.269165,2.4350586   c1.894043,0,3.4350586-1.5410156,3.4350586-3.4350586S72.6479492,46.5649414,70.7539063,46.5649414z M61.4399414,30.5405273   c0.7915039,0,1.4350586,0.6435547,1.4350586,1.4350586s-0.6435547,1.4350586-1.4350586,1.4350586   s-1.4350586-0.6435547-1.4350586-1.4350586S60.6484375,30.5405273,61.4399414,30.5405273z M31.8544922,37.2495117   c-0.7915039,0-1.4350586-0.6435547-1.4350586-1.4350586s0.6435547-1.4350586,1.4350586-1.4350586   s1.4350586,0.6435547,1.4350586,1.4350586S32.6459961,37.2495117,31.8544922,37.2495117z M29.2460938,51.4350586   c-0.7915039,0-1.4350586-0.6435547-1.4350586-1.4350586s0.6435547-1.4350586,1.4350586-1.4350586   S30.6811523,49.2084961,30.6811523,50S30.0375977,51.4350586,29.2460938,51.4350586z M38.5600586,69.4594727   c-0.7915039,0-1.4350586-0.6435547-1.4350586-1.4350586s0.6435547-1.4350586,1.4350586-1.4350586   s1.4350586,0.6435547,1.4350586,1.4350586S39.3515625,69.4594727,38.5600586,69.4594727z M68.5625,61.6948242   c0.7915039,0,1.4350586,0.6435547,1.4350586,1.4350586s-0.6435547,1.4350586-1.4350586,1.4350586   s-1.4350586-0.6435547-1.4350586-1.4350586S67.7709961,61.6948242,68.5625,61.6948242z M50,59.6235352   c-5.3066406,0-9.6235352-4.3168945-9.6235352-9.6235352S44.6933594,40.3764648,50,40.3764648S59.6235352,44.6933594,59.6235352,50   S55.3066406,59.6235352,50,59.6235352z M70.7539063,51.4350586c-0.7915039,0-1.4350586-0.6435547-1.4350586-1.4350586   s0.6435547-1.4350586,1.4350586-1.4350586S72.1889648,49.2084961,72.1889648,50S71.5454102,51.4350586,70.7539063,51.4350586z"/></g></svg>